<?xml version="1.0" encoding="UTF-8" standalone="no"?>
<!DOCTYPE svg PUBLIC "-//W3C//DTD SVG 1.1//EN" "http://www.w3.org/Graphics/SVG/1.1/DTD/svg11.dtd">
<svg width="100%" height="100%" viewBox="0 0 16 16" version="1.1" xmlns="http://www.w3.org/2000/svg" xmlns:xlink="http://www.w3.org/1999/xlink" xml:space="preserve" xmlns:serif="http://www.serif.com/" style="fill-rule:evenodd;clip-rule:evenodd;stroke-linejoin:round;stroke-miterlimit:2;">
    <path d="M8,16C12.389,16 16,12.389 16,8C16,3.611 12.389,0 8,0C3.611,0 -0,3.611 0,8C0,12.389 3.611,16 8,16ZM11.78,6.28C11.909,6.141 11.981,5.958 11.981,5.769C11.981,5.357 11.643,5.019 11.231,5.019C11.042,5.019 10.859,5.091 10.72,5.22L6.75,9.19L5.28,7.72C5.141,7.591 4.958,7.519 4.769,7.519C4.357,7.519 4.019,7.857 4.019,8.269C4.019,8.458 4.091,8.641 4.22,8.78L6.22,10.78C6.511,11.071 6.989,11.071 7.28,10.78L11.78,6.28Z" style="fill:rgb(45,164,78);"/>
</svg>
