<?xml version="1.0" encoding="UTF-8" standalone="no"?>
<!DOCTYPE svg PUBLIC "-//W3C//DTD SVG 1.1//EN" "http://www.w3.org/Graphics/SVG/1.1/DTD/svg11.dtd">
<svg width="100%" height="100%" viewBox="0 0 2348 549" version="1.1" xmlns="http://www.w3.org/2000/svg" xmlns:xlink="http://www.w3.org/1999/xlink" xml:space="preserve" xmlns:serif="http://www.serif.com/" style="fill-rule:evenodd;clip-rule:evenodd;stroke-linejoin:round;stroke-miterlimit:2;">
    <g id="logo" transform="matrix(0.997135,0,0,0.730622,-84.5444,-976.399)">
        <rect x="84.787" y="1336.39" width="2354.48" height="750.365" style="fill:none;"/>
        <g transform="matrix(1.36811,0,0,1.86716,40.9099,-4377.1)">
            <g transform="matrix(0.693333,0,0,0.693333,30.5188,1000.02)">
                <g transform="matrix(1.62203,0,0,1.62203,-998.642,2944.82)">
                    <path d="M908.439,98.549C908.439,87.862 899.763,79.186 889.076,79.186L696.389,79.186C685.702,79.186 677.026,87.862 677.026,98.549L677.026,291.237C677.026,301.923 685.702,310.599 696.389,310.599L889.076,310.599C899.763,310.599 908.439,301.923 908.439,291.237L908.439,98.549Z" style="fill:rgb(0,135,255);"/>
                </g>
                <g transform="matrix(0.403701,0,0,0.403701,84.1358,3121.86)">
                    <path d="M518.547,517.161L514.847,518.461C509.347,520.161 501.047,525.961 497.547,530.261C495.947,532.361 493.347,536.461 491.847,539.461C489.347,544.361 489.047,545.861 489.047,555.461C489.047,565.561 489.147,566.261 492.747,573.461C494.747,577.561 496.147,581.161 495.747,581.461C493.947,583.061 393.447,622.461 388.747,623.461C385.447,624.161 375.147,624.461 361.247,624.161L339.047,623.861L285.847,602.461L232.547,581.161L234.547,578.661C235.547,577.361 237.447,573.661 238.547,570.561C246.347,549.861 236.947,527.561 217.047,519.261L211.547,516.961L211.547,410.561L268.847,433.461C315.147,451.961 327.747,456.561 334.947,457.861C347.047,459.961 383.047,459.961 394.947,457.861C401.747,456.661 414.647,451.861 456.347,435.261C485.347,423.661 511.147,413.261 513.847,412.261L518.547,410.361L518.547,517.161ZM539.547,529.561C553.047,535.361 559.847,551.361 554.847,565.961C552.547,572.761 544.647,580.461 537.647,582.861C523.947,587.361 508.747,581.561 502.547,569.261C498.947,562.361 498.247,556.261 500.047,549.261C504.547,531.261 522.647,522.261 539.547,529.561ZM173.747,584.361L153.847,584.361C128.047,584.361 124.047,583.061 119.047,572.961L116.547,567.961L116.547,439.461C116.547,316.461 116.647,310.661 118.447,306.861C121.047,301.261 125.647,297.261 131.247,295.761C135.147,294.761 180.647,294.561 367.047,294.661L598.047,294.861L602.047,296.961C606.647,299.461 608.547,301.461 611.147,306.361C612.947,309.761 613.047,315.061 613.347,436.361C613.547,528.761 613.347,564.261 612.547,568.161C611.147,574.461 606.847,579.861 601.047,582.461C597.647,584.061 594.247,584.361 576.847,584.361C565.647,584.361 556.547,584.061 556.547,583.761C556.547,583.461 557.947,581.561 559.547,579.461C571.247,564.961 569.347,540.861 555.447,527.361L551.547,523.561L551.547,389.561L548.747,384.261C544.647,376.461 539.347,373.061 530.547,372.561L523.647,372.161L457.847,398.461L392.047,424.861L337.047,424.861L271.747,398.561C212.547,374.761 206.047,372.361 200.747,372.361C193.747,372.361 187.947,374.861 184.147,379.461C178.347,386.261 178.547,383.761 178.547,456.361L178.547,523.361L175.547,526.061C160.347,539.561 158.347,564.161 171.147,580.861L173.747,584.361ZM655.247,163.061C661.747,167.361 772.047,298.961 776.347,307.761C781.847,318.761 783.847,328.861 783.247,341.761C782.747,352.661 782.447,354.061 758.347,435.561L733.847,518.261L876.047,518.861L880.047,521.561C882.247,523.061 885.147,525.961 886.547,528.061C888.947,531.561 889.047,532.461 889.347,549.761C889.647,564.461 889.347,568.461 888.047,571.961C886.047,577.161 880.947,581.861 875.847,583.361C873.147,584.161 838.647,584.361 759.447,584.161L646.847,583.861L642.747,580.961C640.147,579.161 637.647,576.261 636.047,573.061C633.647,568.261 633.547,567.061 633.547,552.461C633.547,534.761 634.347,530.761 638.847,525.661C644.247,519.461 648.047,518.361 664.247,518.361C676.847,518.361 678.447,518.161 678.947,516.561C735.247,325.261 732.347,336.661 727.447,329.961C723.447,324.661 672.347,264.261 672.047,264.561C671.847,264.761 669.847,271.161 667.547,278.861C662.447,295.861 660.247,298.861 655.547,295.061C653.947,293.861 562.147,184.661 557.847,178.961C555.147,175.461 554.947,172.161 557.147,170.261C559.247,168.561 638.747,159.261 645.947,159.861C649.147,160.161 652.447,161.361 655.247,163.061ZM213.547,529.561C223.247,533.661 229.547,542.661 230.347,553.461C231.147,565.261 225.947,575.061 215.747,581.161C211.547,583.561 210.047,583.861 202.047,583.861C194.747,583.861 192.247,583.461 189.047,581.661C175.247,574.261 169.447,557.961 175.647,544.361C182.547,529.361 198.547,523.061 213.547,529.561ZM425.247,67.961C429.947,70.661 433.547,76.961 433.547,82.361C433.547,86.761 430.047,93.861 426.747,96.261C425.247,97.261 422.347,98.661 420.347,99.261C416.747,100.461 416.647,100.561 408.147,121.961C403.447,133.761 399.547,143.561 399.547,143.861C399.547,144.061 410.047,144.361 422.847,144.561L446.247,144.861L450.447,147.661C453.247,149.561 455.347,152.061 456.647,154.861C458.547,159.061 458.547,161.761 458.347,218.761L458.047,278.161L455.047,281.961C448.547,289.861 454.847,289.361 365.347,289.361C311.547,289.361 284.747,289.061 282.847,288.261C279.347,286.961 274.947,282.861 272.747,278.861C271.247,276.161 271.047,269.861 270.747,219.861C270.447,160.161 270.647,157.661 275.247,151.461C280.047,145.161 283.547,144.361 306.347,144.361C317.447,144.361 326.547,144.161 326.547,143.861C326.547,143.561 324.347,139.961 321.647,135.961C316.847,128.861 316.547,128.661 312.047,128.161C303.647,127.161 296.547,119.261 296.547,110.761C296.547,98.361 310.047,89.661 321.147,94.961C329.147,98.761 333.347,108.461 330.347,116.161L328.947,119.861L336.947,132.061L345.047,144.261L364.147,144.361L383.147,144.361L392.947,119.761L402.847,95.161L400.647,90.961C395.347,80.161 400.047,69.861 412.547,65.061C415.047,64.061 420.847,65.361 425.247,67.961ZM311.347,238.661C308.947,241.461 306.547,244.361 306.247,245.061C304.447,248.061 327.647,260.361 342.547,264.361C355.347,267.861 375.447,267.661 388.747,264.061C401.947,260.461 424.047,248.961 424.047,245.661C424.047,245.061 421.847,241.961 419.247,238.961L414.447,233.361L409.947,236.461C403.047,241.161 389.847,246.961 381.847,248.761C362.347,253.061 338.647,248.661 322.347,237.661C319.947,236.061 317.547,234.361 316.947,234.061C316.247,233.661 313.847,235.661 311.347,238.661ZM312.847,179.361C304.847,181.161 298.647,190.161 299.847,197.961C301.247,206.561 308.147,212.361 317.047,212.361C322.747,212.361 326.647,210.461 330.047,205.961C339.547,193.461 328.147,175.961 312.847,179.361ZM409.947,179.261C398.547,181.961 393.047,194.261 398.647,204.361C404.647,215.061 421.447,214.961 427.547,204.161C432.747,194.861 428.247,182.661 418.547,179.961C414.047,178.661 413.047,178.561 409.947,179.261ZM683.647,142.761C685.047,143.761 703.447,165.261 709.347,172.761C712.647,177.061 712.347,182.361 708.447,186.861C702.747,193.261 696.647,195.061 691.347,191.561C687.747,189.261 665.647,162.661 663.947,158.661C661.847,153.861 663.147,149.861 668.247,145.361C673.747,140.561 679.047,139.661 683.647,142.761Z" style="fill:white;fill-rule:nonzero;"/>
                </g>
            </g>
            <g transform="matrix(0.944074,0,0,0.879483,-78.703,398.464)">
                <path d="M541.022,3159.48L556.266,3159.48L584.23,3209.51L585.007,3209.51L584.23,3195.12L584.23,3159.48L597.241,3159.48L597.241,3234.1L583.453,3234.1L553.936,3181.26L553.159,3181.26L553.936,3195.64L553.936,3234.1L541.022,3234.1L541.022,3159.48Z" style="fill:rgb(0,135,255);fill-rule:nonzero;"/>
                <path d="M611.223,3159.48L624.331,3159.48L624.331,3189.29L653.557,3189.29L653.557,3159.48L666.665,3159.48L666.665,3234.1L653.557,3234.1L653.557,3202.63L624.331,3202.63L624.331,3234.1L611.223,3234.1L611.223,3159.48Z" style="fill:rgb(0,135,255);fill-rule:nonzero;"/>
                <path d="M728.613,3136.86L718.612,3152.28L707.834,3152.28L715.893,3136.86L728.613,3136.86ZM712.592,3235.77C707.414,3235.77 702.607,3234.76 698.173,3232.75C693.739,3230.73 689.904,3227.97 686.667,3224.46C683.431,3220.95 680.89,3216.82 679.045,3212.06C677.2,3207.3 676.278,3202.21 676.278,3196.79C676.278,3191.37 677.2,3186.28 679.045,3181.52C680.89,3176.76 683.431,3172.63 686.667,3169.12C689.904,3165.61 693.739,3162.85 698.173,3160.83C702.607,3158.82 707.414,3157.81 712.592,3157.81C717.771,3157.81 722.577,3158.82 727.011,3160.83C731.445,3162.85 735.28,3165.61 738.517,3169.12C741.753,3172.63 744.294,3176.76 746.139,3181.52C747.984,3186.28 748.906,3191.37 748.906,3196.79C748.906,3202.21 747.984,3207.3 746.139,3212.06C744.294,3216.82 741.753,3220.95 738.517,3224.46C735.28,3227.97 731.445,3230.73 727.011,3232.75C722.577,3234.76 717.771,3235.77 712.592,3235.77ZM712.592,3222.43C715.829,3222.43 718.855,3221.81 721.671,3220.55C724.486,3219.3 726.946,3217.57 729.05,3215.34C731.154,3213.12 732.804,3210.43 734.002,3207.26C735.199,3204.1 735.798,3200.61 735.798,3196.79C735.798,3192.97 735.199,3189.48 734.002,3186.32C732.804,3183.15 731.154,3180.46 729.05,3178.24C726.946,3176.01 724.486,3174.28 721.671,3173.03C718.855,3171.78 715.829,3171.15 712.592,3171.15C709.355,3171.15 706.329,3171.78 703.513,3173.03C700.698,3174.28 698.238,3176.01 696.134,3178.24C694.03,3180.46 692.38,3183.15 691.182,3186.32C689.985,3189.48 689.386,3192.97 689.386,3196.79C689.386,3200.61 689.985,3204.1 691.182,3207.26C692.38,3210.43 694.03,3213.12 696.134,3215.34C698.238,3217.57 700.698,3219.3 703.513,3220.55C706.329,3221.81 709.355,3222.43 712.592,3222.43Z" style="fill:rgb(0,135,255);fill-rule:nonzero;"/>
                <path d="M759.49,3159.48L772.404,3159.48L793.668,3198.98L794.445,3198.98L815.709,3159.48L828.72,3159.48L828.72,3234.1L815.709,3234.1L815.709,3197.31L816.486,3184.8L815.709,3184.8L798.037,3218.26L790.172,3218.26L772.404,3184.8L771.627,3184.8L772.404,3197.31L772.404,3234.1L759.49,3234.1L759.49,3159.48Z" style="fill:rgb(0,135,255);fill-rule:nonzero;"/>
                <path d="M864.063,3159.48L887.561,3159.48C893.063,3159.48 898.015,3160.38 902.416,3162.19C906.818,3163.99 910.573,3166.55 913.68,3169.85C916.787,3173.15 919.166,3177.09 920.816,3181.68C922.467,3186.26 923.292,3191.3 923.292,3196.79C923.292,3202.35 922.467,3207.42 920.816,3212.01C919.166,3216.59 916.787,3220.52 913.68,3223.78C910.573,3227.05 906.818,3229.59 902.416,3231.39C898.015,3233.2 893.063,3234.1 887.561,3234.1L864.063,3234.1L864.063,3159.48ZM886.978,3220.76C890.797,3220.76 894.163,3220.19 897.076,3219.04C899.989,3217.9 902.416,3216.28 904.358,3214.2C906.3,3212.11 907.757,3209.59 908.728,3206.64C909.699,3203.69 910.184,3200.4 910.184,3196.79C910.184,3193.18 909.699,3189.89 908.728,3186.94C907.757,3183.99 906.3,3181.47 904.358,3179.38C902.416,3177.3 899.989,3175.68 897.076,3174.54C894.163,3173.39 890.797,3172.82 886.978,3172.82L877.171,3172.82L877.171,3220.76L886.978,3220.76Z" style="fill:rgb(0,135,255);fill-rule:nonzero;"/>
                <path d="M933.876,3159.48L946.984,3159.48L946.984,3234.1L933.876,3234.1L933.876,3159.48ZM940.381,3259.43C938.375,3259.43 936.659,3258.68 935.235,3257.19C933.811,3255.7 933.099,3253.84 933.099,3251.61C933.099,3249.39 933.811,3247.51 935.235,3245.99C936.659,3244.46 938.375,3243.69 940.381,3243.69C942.453,3243.69 944.217,3244.46 945.673,3245.99C947.13,3247.51 947.858,3249.39 947.858,3251.61C947.858,3253.77 947.13,3255.61 945.673,3257.14C944.217,3258.67 942.453,3259.43 940.381,3259.43Z" style="fill:rgb(0,135,255);fill-rule:nonzero;"/>
                <path d="M1021.75,3222.12C1018.25,3226.56 1014.21,3229.95 1009.61,3232.28C1005.01,3234.61 999.805,3235.77 993.979,3235.77C988.8,3235.77 983.994,3234.76 979.56,3232.75C975.126,3230.73 971.29,3227.99 968.054,3224.51C964.817,3221.04 962.26,3216.92 960.383,3212.16C958.506,3207.4 957.567,3202.28 957.567,3196.79C957.567,3191.3 958.506,3186.18 960.383,3181.42C962.26,3176.66 964.817,3172.54 968.054,3169.07C971.29,3165.59 975.126,3162.85 979.56,3160.83C983.994,3158.82 988.8,3157.81 993.979,3157.81C999.61,3157.81 1004.53,3158.85 1008.74,3160.94C1012.95,3163.02 1016.7,3166.04 1020,3170L1010.78,3179.59C1008.71,3177.02 1006.33,3174.97 1003.64,3173.44C1000.95,3171.91 997.766,3171.15 994.076,3171.15C990.839,3171.15 987.797,3171.76 984.949,3172.97C982.101,3174.19 979.625,3175.91 977.521,3178.13C975.417,3180.36 973.75,3183.05 972.52,3186.21C971.29,3189.37 970.676,3192.9 970.676,3196.79C970.676,3200.68 971.29,3204.21 972.52,3207.37C973.75,3210.53 975.417,3213.22 977.521,3215.45C979.625,3217.67 982.101,3219.39 984.949,3220.61C987.797,3221.82 990.839,3222.43 994.076,3222.43C997.96,3222.43 1001.41,3221.58 1004.42,3219.88C1007.43,3218.17 1010.1,3215.76 1012.43,3212.63L1021.75,3222.12Z" style="fill:rgb(0,135,255);fill-rule:nonzero;"/>
                <path d="M1032.24,3159.48L1045.34,3159.48L1045.34,3189.29L1074.57,3189.29L1074.57,3159.48L1087.68,3159.48L1087.68,3234.1L1074.57,3234.1L1074.57,3202.63L1045.34,3202.63L1045.34,3234.1L1032.24,3234.1L1032.24,3159.48Z" style="fill:rgb(0,135,255);fill-rule:nonzero;"/>
                <path d="M1133.89,3234.1L1133.89,3172.82L1114.48,3172.82L1114.48,3159.48L1166.42,3159.48L1166.42,3172.82L1147,3172.82L1147,3234.1L1133.89,3234.1Z" style="fill:rgb(0,135,255);fill-rule:nonzero;"/>
                <path d="M1175.74,3159.48L1188.85,3159.48L1188.85,3189.29L1218.08,3189.29L1218.08,3159.48L1231.19,3159.48L1231.19,3234.1L1218.08,3234.1L1218.08,3202.63L1188.85,3202.63L1188.85,3234.1L1175.74,3234.1L1175.74,3159.48Z" style="fill:rgb(0,135,255);fill-rule:nonzero;"/>
                <path d="M1270.61,3235.77C1266.53,3235.77 1262.82,3235.06 1259.49,3233.64C1256.16,3232.21 1253.33,3230.14 1250.99,3227.43C1248.66,3224.72 1246.85,3221.44 1245.56,3217.58C1244.26,3213.73 1243.62,3209.33 1243.62,3204.4L1243.62,3159.48L1256.72,3159.48L1256.72,3205.23C1256.72,3207.73 1257.01,3210.03 1257.6,3212.11C1258.18,3214.2 1259.05,3216 1260.22,3217.53C1261.38,3219.06 1262.84,3220.26 1264.59,3221.13C1266.34,3222 1268.34,3222.43 1270.61,3222.43C1272.94,3222.43 1274.98,3222 1276.73,3221.13C1278.47,3220.26 1279.93,3219.06 1281.09,3217.53C1282.26,3216 1283.13,3214.2 1283.72,3212.11C1284.3,3210.03 1284.59,3207.73 1284.59,3205.23L1284.59,3159.48L1297.7,3159.48L1297.7,3204.4C1297.7,3209.05 1297.07,3213.31 1295.8,3217.17C1294.54,3221.02 1292.73,3224.32 1290.37,3227.07C1288,3229.81 1285.16,3231.95 1281.82,3233.48C1278.49,3235.01 1274.75,3235.77 1270.61,3235.77Z" style="fill:rgb(0,135,255);fill-rule:nonzero;"/>
                <path d="M1337.9,3259.43C1335.89,3259.43 1334.17,3258.68 1332.75,3257.19C1331.33,3255.7 1330.61,3253.84 1330.61,3251.61C1330.61,3249.39 1331.33,3247.51 1332.75,3245.99C1334.17,3244.46 1335.89,3243.69 1337.9,3243.69C1339.97,3243.69 1341.73,3244.46 1343.19,3245.99C1344.64,3247.51 1345.37,3249.39 1345.37,3251.61C1345.37,3253.77 1344.64,3255.61 1343.19,3257.14C1341.73,3258.67 1339.97,3259.43 1337.9,3259.43ZM1333.33,3153.33L1322.46,3153.33L1332.65,3137.9L1343.14,3137.9L1353.33,3153.33L1342.46,3153.33L1337.9,3146.87L1333.33,3153.33ZM1330.42,3159.48L1345.37,3159.48L1371.49,3234.1L1357.02,3234.1L1351.3,3216.28L1324.5,3216.28L1318.77,3234.1L1304.3,3234.1L1330.42,3159.48ZM1347.02,3203.36L1340.81,3184.7L1338.28,3175.63L1337.51,3175.63L1334.98,3184.7L1328.77,3203.36L1347.02,3203.36Z" style="fill:rgb(0,135,255);fill-rule:nonzero;"/>
                <path d="M1388.1,3234.1L1388.1,3172.82L1368.68,3172.82L1368.68,3159.48L1420.62,3159.48L1420.62,3172.82L1401.2,3172.82L1401.2,3234.1L1388.1,3234.1Z" style="fill:rgb(0,135,255);fill-rule:nonzero;"/>
                <path d="M541.022,3273.13L553.936,3273.13L575.2,3312.63L575.977,3312.63L597.241,3273.13L610.252,3273.13L610.252,3347.75L597.241,3347.75L597.241,3310.96L598.018,3298.45L597.241,3298.45L579.569,3331.91L571.704,3331.91L553.936,3298.45L553.159,3298.45L553.936,3310.96L553.936,3347.75L541.022,3347.75L541.022,3273.13Z" style="fill:rgb(0,135,255);fill-rule:nonzero;"/>
                <path d="M644.527,3273.13L659.48,3273.13L685.599,3347.75L671.132,3347.75L665.403,3329.93L638.604,3329.93L632.876,3347.75L618.408,3347.75L644.527,3273.13ZM661.131,3317.01L654.916,3298.35L652.392,3289.28L651.615,3289.28L649.091,3298.35L642.876,3317.01L661.131,3317.01Z" style="fill:rgb(0,135,255);fill-rule:nonzero;"/>
                <path d="M754.538,3335.77C751.042,3340.21 746.997,3343.6 742.401,3345.93C737.805,3348.26 732.594,3349.42 726.768,3349.42C721.59,3349.42 716.783,3348.41 712.349,3346.4C707.915,3344.38 704.08,3341.64 700.843,3338.16C697.607,3334.69 695.05,3330.57 693.173,3325.81C691.295,3321.05 690.357,3315.93 690.357,3310.44C690.357,3304.95 691.295,3299.83 693.173,3295.07C695.05,3290.31 697.607,3286.19 700.843,3282.72C704.08,3279.24 707.915,3276.5 712.349,3274.48C716.783,3272.47 721.59,3271.46 726.768,3271.46C732.4,3271.46 737.319,3272.5 741.527,3274.59C745.734,3276.67 749.489,3279.69 752.79,3283.65L743.566,3293.24C741.495,3290.67 739.116,3288.62 736.429,3287.09C733.743,3285.56 730.555,3284.8 726.865,3284.8C723.629,3284.8 720.586,3285.41 717.738,3286.62C714.89,3287.84 712.414,3289.56 710.31,3291.78C708.207,3294.01 706.54,3296.7 705.31,3299.86C704.08,3303.02 703.465,3306.55 703.465,3310.44C703.465,3314.33 704.08,3317.86 705.31,3321.02C706.54,3324.18 708.207,3326.87 710.31,3329.1C712.414,3331.32 714.89,3333.04 717.738,3334.26C720.586,3335.47 723.629,3336.08 726.865,3336.08C730.749,3336.08 734.196,3335.23 737.206,3333.53C740.216,3331.82 742.886,3329.41 745.217,3326.28L754.538,3335.77Z" style="fill:rgb(0,135,255);fill-rule:nonzero;"/>
                <path d="M765.024,3273.13L778.132,3273.13L778.132,3302.94L807.359,3302.94L807.359,3273.13L820.467,3273.13L820.467,3347.75L807.359,3347.75L807.359,3316.28L778.132,3316.28L778.132,3347.75L765.024,3347.75L765.024,3273.13Z" style="fill:rgb(0,135,255);fill-rule:nonzero;"/>
                <rect x="834.449" y="3273.13" width="13.108" height="74.627" style="fill:rgb(0,135,255);fill-rule:nonzero;"/>
                <path d="M861.539,3273.13L876.783,3273.13L904.747,3323.16L905.524,3323.16L904.747,3308.77L904.747,3273.13L917.758,3273.13L917.758,3347.75L903.97,3347.75L874.453,3294.91L873.676,3294.91L874.453,3309.29L874.453,3347.75L861.539,3347.75L861.539,3273.13Z" style="fill:rgb(0,135,255);fill-rule:nonzero;"/>
                <path d="M944.848,3286.47L944.848,3303.77L972.715,3303.77L972.715,3317.11L944.848,3317.11L944.848,3334.41L975.822,3334.41L975.822,3347.75L931.74,3347.75L931.74,3273.13L975.822,3273.13L975.822,3286.47L944.848,3286.47Z" style="fill:rgb(0,135,255);fill-rule:nonzero;"/>
                <path d="M1009.22,3273.13L1022.33,3273.13L1022.33,3334.41L1051.75,3334.41L1051.75,3347.75L1009.22,3347.75L1009.22,3273.13Z" style="fill:rgb(0,135,255);fill-rule:nonzero;"/>
                <path d="M1074.18,3286.47L1074.18,3303.77L1102.05,3303.77L1102.05,3317.11L1074.18,3317.11L1074.18,3334.41L1105.15,3334.41L1105.15,3347.75L1061.07,3347.75L1061.07,3273.13L1105.15,3273.13L1105.15,3286.47L1074.18,3286.47Z" style="fill:rgb(0,135,255);fill-rule:nonzero;"/>
                <path d="M1137.49,3273.13L1152.44,3273.13L1178.56,3347.75L1164.09,3347.75L1158.36,3329.93L1131.57,3329.93L1125.84,3347.75L1111.37,3347.75L1137.49,3273.13ZM1154.09,3317.01L1147.88,3298.35L1145.35,3289.28L1144.58,3289.28L1142.05,3298.35L1135.84,3317.01L1154.09,3317.01Z" style="fill:rgb(0,135,255);fill-rule:nonzero;"/>
                <path d="M1186.72,3273.13L1212.06,3273.13C1215.55,3273.13 1218.73,3273.72 1221.57,3274.9C1224.42,3276.08 1226.87,3277.71 1228.9,3279.8C1230.94,3281.88 1232.51,3284.37 1233.61,3287.25C1234.71,3290.13 1235.27,3293.28 1235.27,3296.68C1235.27,3299.18 1234.88,3301.53 1234.1,3303.72C1233.32,3305.91 1232.26,3307.89 1230.89,3309.66C1229.54,3311.43 1227.95,3312.99 1226.14,3314.35C1224.33,3315.7 1222.41,3316.76 1220.41,3317.53L1220.31,3318.26L1238.95,3346.92L1238.95,3347.75L1223.9,3347.75L1205.94,3319.72L1199.82,3319.72L1199.82,3347.75L1186.72,3347.75L1186.72,3273.13ZM1211.96,3306.79C1214.94,3306.79 1217.38,3305.82 1219.29,3303.87C1221.2,3301.93 1222.16,3299.46 1222.16,3296.47C1222.16,3295.15 1221.95,3293.87 1221.53,3292.62C1221.11,3291.37 1220.47,3290.26 1219.63,3289.28C1218.79,3288.31 1217.74,3287.53 1216.48,3286.94C1215.21,3286.35 1213.77,3286.05 1212.15,3286.05L1199.82,3286.05L1199.82,3306.79L1211.96,3306.79Z" style="fill:rgb(0,135,255);fill-rule:nonzero;"/>
                <path d="M1246.92,3273.13L1262.16,3273.13L1290.12,3323.16L1290.9,3323.16L1290.12,3308.77L1290.12,3273.13L1303.13,3273.13L1303.13,3347.75L1289.35,3347.75L1259.83,3294.91L1259.05,3294.91L1259.83,3309.29L1259.83,3347.75L1246.92,3347.75L1246.92,3273.13Z" style="fill:rgb(0,135,255);fill-rule:nonzero;"/>
                <rect x="1317.12" y="3273.13" width="13.108" height="74.627" style="fill:rgb(0,135,255);fill-rule:nonzero;"/>
                <path d="M1344.21,3273.13L1359.45,3273.13L1387.41,3323.16L1388.19,3323.16L1387.41,3308.77L1387.41,3273.13L1400.43,3273.13L1400.43,3347.75L1386.64,3347.75L1357.12,3294.91L1356.34,3294.91L1357.12,3309.29L1357.12,3347.75L1344.21,3347.75L1344.21,3273.13Z" style="fill:rgb(0,135,255);fill-rule:nonzero;"/>
                <path d="M1446.45,3306.79L1480.53,3306.79C1480.73,3307.63 1480.89,3308.63 1481.02,3309.82C1481.15,3311 1481.21,3312.18 1481.21,3313.36C1481.21,3318.15 1480.53,3322.67 1479.17,3326.91C1477.81,3331.15 1475.68,3334.93 1472.76,3338.27C1469.66,3341.81 1465.95,3344.56 1461.65,3346.5C1457.34,3348.45 1452.37,3349.42 1446.74,3349.42C1441.69,3349.42 1436.93,3348.45 1432.47,3346.5C1428,3344.56 1424.12,3341.85 1420.82,3338.37C1417.52,3334.9 1414.89,3330.78 1412.95,3326.02C1411.01,3321.26 1410.04,3316.07 1410.04,3310.44C1410.04,3304.81 1411.01,3299.62 1412.95,3294.86C1414.89,3290.1 1417.52,3285.98 1420.82,3282.51C1424.12,3279.03 1428,3276.32 1432.47,3274.38C1436.93,3272.43 1441.69,3271.46 1446.74,3271.46C1452.44,3271.46 1457.49,3272.48 1461.89,3274.53C1466.29,3276.58 1470.08,3279.48 1473.25,3283.24L1464.22,3292.72C1461.95,3290.15 1459.43,3288.19 1456.64,3286.83C1453.86,3285.48 1450.53,3284.8 1446.64,3284.8C1443.47,3284.8 1440.46,3285.41 1437.61,3286.62C1434.77,3287.84 1432.27,3289.56 1430.14,3291.78C1428,3294.01 1426.3,3296.7 1425.04,3299.86C1423.78,3303.02 1423.15,3306.55 1423.15,3310.44C1423.15,3314.33 1423.78,3317.86 1425.04,3321.02C1426.3,3324.18 1428.02,3326.87 1430.19,3329.1C1432.36,3331.32 1434.86,3333.04 1437.71,3334.26C1440.56,3335.47 1443.6,3336.08 1446.84,3336.08C1450.53,3336.08 1453.65,3335.51 1456.21,3334.36C1458.77,3333.21 1460.95,3331.74 1462.76,3329.93C1464.06,3328.68 1465.17,3327.1 1466.11,3325.19C1467.05,3323.28 1467.78,3321.14 1468.3,3318.78L1446.45,3318.78L1446.45,3306.79Z" style="fill:rgb(0,135,255);fill-rule:nonzero;"/>
                <path d="M1572.29,3335.77C1568.79,3340.21 1564.75,3343.6 1560.15,3345.93C1555.56,3348.26 1550.34,3349.42 1544.52,3349.42C1539.34,3349.42 1534.53,3348.41 1530.1,3346.4C1525.66,3344.38 1521.83,3341.64 1518.59,3338.16C1515.36,3334.69 1512.8,3330.57 1510.92,3325.81C1509.05,3321.05 1508.11,3315.93 1508.11,3310.44C1508.11,3304.95 1509.05,3299.83 1510.92,3295.07C1512.8,3290.31 1515.36,3286.19 1518.59,3282.72C1521.83,3279.24 1525.66,3276.5 1530.1,3274.48C1534.53,3272.47 1539.34,3271.46 1544.52,3271.46C1550.15,3271.46 1555.07,3272.5 1559.28,3274.59C1563.48,3276.67 1567.24,3279.69 1570.54,3283.65L1561.32,3293.24C1559.24,3290.67 1556.87,3288.62 1554.18,3287.09C1551.49,3285.56 1548.31,3284.8 1544.62,3284.8C1541.38,3284.8 1538.34,3285.41 1535.49,3286.62C1532.64,3287.84 1530.16,3289.56 1528.06,3291.78C1525.96,3294.01 1524.29,3296.7 1523.06,3299.86C1521.83,3303.02 1521.21,3306.55 1521.21,3310.44C1521.21,3314.33 1521.83,3317.86 1523.06,3321.02C1524.29,3324.18 1525.96,3326.87 1528.06,3329.1C1530.16,3331.32 1532.64,3333.04 1535.49,3334.26C1538.34,3335.47 1541.38,3336.08 1544.62,3336.08C1548.5,3336.08 1551.95,3335.23 1554.96,3333.53C1557.97,3331.82 1560.64,3329.41 1562.97,3326.28L1572.29,3335.77Z" style="fill:rgb(0,135,255);fill-rule:nonzero;"/>
                <path d="M1614.72,3349.42C1609.54,3349.42 1604.73,3348.41 1600.3,3346.4C1595.87,3344.38 1592.03,3341.62 1588.79,3338.11C1585.56,3334.6 1583.02,3330.47 1581.17,3325.71C1579.33,3320.95 1578.4,3315.86 1578.4,3310.44C1578.4,3305.02 1579.33,3299.93 1581.17,3295.17C1583.02,3290.41 1585.56,3286.28 1588.79,3282.77C1592.03,3279.26 1595.87,3276.5 1600.3,3274.48C1604.73,3272.47 1609.54,3271.46 1614.72,3271.46C1618.15,3271.46 1621.52,3271.95 1624.82,3272.92C1625.66,3273.06 1626.4,3273.14 1627.05,3273.18C1627.7,3273.21 1628.25,3273.26 1628.7,3273.34L1630.59,3273.34C1631.21,3273.34 1631.84,3273.3 1632.49,3273.23C1634.24,3273.16 1635.6,3272.54 1636.57,3271.36C1637.54,3270.17 1638.02,3267.91 1638.02,3264.58L1647.83,3267.39C1647.76,3271.98 1646.57,3275.66 1644.24,3278.44C1642.94,3279.97 1641.32,3280.98 1639.38,3281.47L1640.64,3282.82C1643.94,3286.36 1646.5,3290.5 1648.32,3295.22C1650.13,3299.95 1651.03,3305.02 1651.03,3310.44C1651.03,3315.86 1650.11,3320.95 1648.27,3325.71C1646.42,3330.47 1643.88,3334.6 1640.64,3338.11C1637.41,3341.62 1633.57,3344.38 1629.14,3346.4C1624.7,3348.41 1619.9,3349.42 1614.72,3349.42ZM1614.72,3336.08C1617.96,3336.08 1620.98,3335.45 1623.8,3334.2C1626.61,3332.95 1629.07,3331.22 1631.18,3328.99C1633.28,3326.77 1634.93,3324.08 1636.13,3320.91C1637.33,3317.75 1637.92,3314.26 1637.92,3310.44C1637.92,3306.62 1637.33,3303.13 1636.13,3299.97C1634.93,3296.8 1633.28,3294.11 1631.18,3291.89C1629.07,3289.66 1626.61,3287.93 1623.8,3286.68C1620.98,3285.43 1617.96,3284.8 1614.72,3284.8C1611.48,3284.8 1608.46,3285.43 1605.64,3286.68C1602.83,3287.93 1600.37,3289.66 1598.26,3291.89C1596.16,3294.11 1594.51,3296.8 1593.31,3299.97C1592.11,3303.13 1591.51,3306.62 1591.51,3310.44C1591.51,3314.26 1592.11,3317.75 1593.31,3320.91C1594.51,3324.08 1596.16,3326.77 1598.26,3328.99C1600.37,3331.22 1602.83,3332.95 1605.64,3334.2C1608.46,3335.45 1611.48,3336.08 1614.72,3336.08Z" style="fill:rgb(0,135,255);fill-rule:nonzero;"/>
                <path d="M1682.98,3273.13L1710.16,3273.13C1713.14,3273.13 1715.93,3273.63 1718.52,3274.64C1721.11,3275.64 1723.35,3277.03 1725.26,3278.81C1727.17,3280.58 1728.68,3282.65 1729.78,3285.01C1730.88,3287.37 1731.43,3289.91 1731.43,3292.62C1731.43,3296.58 1730.56,3299.9 1728.81,3302.57C1727.06,3305.25 1724.83,3307.28 1722.11,3308.67L1722.11,3309.5C1725.67,3310.89 1728.53,3313.06 1730.7,3316.02C1732.87,3318.97 1733.95,3322.64 1733.95,3327.01C1733.95,3330.21 1733.36,3333.08 1732.16,3335.61C1730.96,3338.15 1729.33,3340.32 1727.25,3342.12C1725.18,3343.93 1722.77,3345.32 1720.02,3346.29C1717.27,3347.27 1714.31,3347.75 1711.14,3347.75L1682.98,3347.75L1682.98,3273.13ZM1709.19,3303.56C1712.3,3303.56 1714.66,3302.68 1716.28,3300.9C1717.9,3299.13 1718.71,3297.03 1718.71,3294.6C1718.71,3292.16 1717.92,3290.08 1716.33,3288.34C1714.75,3286.61 1712.5,3285.74 1709.58,3285.74L1696.09,3285.74L1696.09,3303.56L1709.19,3303.56ZM1710.65,3334.83C1713.95,3334.83 1716.48,3333.94 1718.22,3332.17C1719.97,3330.4 1720.85,3328.12 1720.85,3325.35C1720.85,3322.57 1719.96,3320.26 1718.18,3318.41C1716.4,3316.57 1713.76,3315.65 1710.26,3315.65L1696.09,3315.65L1696.09,3334.83L1710.65,3334.83Z" style="fill:rgb(0,135,255);fill-rule:nonzero;"/>
                <path d="M1766.87,3265.93C1766.87,3265.17 1766.95,3264.35 1767.11,3263.49C1767.28,3262.62 1767.55,3261.87 1767.94,3261.24C1768.26,3260.62 1768.72,3260.08 1769.3,3259.63C1769.88,3259.18 1770.45,3258.73 1771,3258.27C1771.55,3257.82 1772.03,3257.35 1772.45,3256.87C1772.87,3256.38 1773.08,3255.76 1773.08,3254.99C1773.08,3254.3 1772.81,3253.81 1772.26,3253.53C1771.71,3253.25 1771.14,3253.12 1770.56,3253.12C1769.91,3253.12 1769.3,3253.25 1768.72,3253.53C1768.13,3253.81 1767.49,3254.47 1766.77,3255.51L1759.49,3252.7C1760.46,3250.27 1761.95,3248.44 1763.96,3247.23C1765.96,3246.01 1768.36,3245.4 1771.14,3245.4C1774.44,3245.4 1777.08,3246.22 1779.06,3247.85C1781.03,3249.48 1782.02,3251.59 1782.02,3254.16C1782.02,3256.17 1781.71,3257.68 1781.1,3258.69C1780.48,3259.7 1779.78,3260.53 1779.01,3261.19C1778.23,3261.85 1777.5,3262.49 1776.82,3263.12C1776.14,3263.75 1775.71,3264.68 1775.51,3265.93L1766.87,3265.93ZM1763.37,3273.13L1778.33,3273.13L1804.45,3347.75L1789.98,3347.75L1784.25,3329.93L1757.45,3329.93L1751.72,3347.75L1737.26,3347.75L1763.37,3273.13ZM1779.98,3317.01L1773.76,3298.35L1771.24,3289.28L1770.46,3289.28L1767.94,3298.35L1761.72,3317.01L1779.98,3317.01Z" style="fill:rgb(0,135,255);fill-rule:nonzero;"/>
                <path d="M1812.6,3273.13L1827.85,3273.13L1855.81,3323.16L1856.59,3323.16L1855.81,3308.77L1855.81,3273.13L1868.82,3273.13L1868.82,3347.75L1855.03,3347.75L1825.52,3294.91L1824.74,3294.91L1825.52,3309.29L1825.52,3347.75L1812.6,3347.75L1812.6,3273.13Z" style="fill:rgb(0,135,255);fill-rule:nonzero;"/>
            </g>
        </g>
    </g>
</svg>
